{"title":"In a Better World [HÃƒÂ¦vnen] [2010] 720p BRRip XviD AC3 - CODY","uid":6260921,"size":2343168849,"categoryP":"video","categoryS":"hd___movies","magnet":"?xt=urn:btih:d27b2e4695ffcd87563f235ba392cdfbd47995e7&amp;dn=In+a+Better+World+%5BH%C3%83%C2%A6vnen%5D+%5B2010%5D+720p+BRRip+XviD+AC3+-+CODY&amp;tr=udp%3A%2F%2Ftracker.openbittorrent.com%3A80&amp;tr=udp%3A%2F%2Fopen.demonii.com%3A1337&amp;tr=udp%3A%2F%2Ftracker.coppersurfer.tk%3A6969&amp;tr=udp%3A%2F%2Fexodus.desync.com%3A6969","seeders":5,"leechers":0,"uploader":"CODYBOSS1969","files":15,"time":1300751355,"description":"General\nComplete name                    : In.a.Better.World.[HÃƒÂ¦vnen].2010.720p.BRRip.XviD.AC3 - CODY.avi\nFormat                           : AVI\nFormat/Info                      : Audio Video Interleave\nFormat profile                   : OpenDML\nFormat settings                  : rec\nFile size                        : 2.18 GiB\nDuration                         : 1h 57mn\nOverall bit rate                 : 2 651 Kbps\nWriting application              : VirtualDubMod 1.5.10.2 (build 2540/release)\nWriting library                  : VirtualDubMod build 2540/release\n\n\nVideo\nID                               : 0\nFormat                           : MPEG-4 Visual\nFormat profile                   : Advanced Simple@L5\nFormat settings, BVOP            : Yes\nFormat settings, QPel            : No\nFormat settings, GMC             : No warppoints\nFormat settings, Matrix          : Default (H.263)\nMuxing mode                      : Packed bitstream\nCodec ID                         : XVID\nCodec ID/Hint                    : XviD\nDuration                         : 1h 57mn\nBit rate                         : 2 199 Kbps\nWidth                            : 1 280 pixels\nHeight                           : 544 pixels\nDisplay aspect ratio             : 2.35:1\nFrame rate                       : 24.000 fps\nColor space                      : YUV\nChroma subsampling               : 4:2:0\nBit depth                        : 8 bits\nScan type                        : Progressive\nCompression mode                 : Lossy\nBits/(Pixel*Frame)               : 0.132\nStream size                      : 1.81 GiB (83%)\nWriting library                  : XviD 1.2.0.dev47 (UTC 2006-11-01)\n\n\nAudio\nID                               : 1\nFormat                           : AC-3\nFormat/Info                      : Audio Coding 3\nMode extension                   : CM (complete main)\nCodec ID                         : 2000\nDuration                         : 1h 57mn\nBit rate mode                    : Constant\nBit rate                         : 448 Kbps\nChannel(s)                       : 6 channels\nChannel positions                : Front: L C R, Side: L R, LFE\nSampling rate                    : 48.0 KHz\nBit depth                        : 16 bits\nCompression mode                 : Lossy\nStream size                      : 377 MiB (17%)\nAlignment                        : Aligned on interleaves\nInterleave, duration             : 64 ms (1.54 video frames)\nInterleave, preload duration     : 192 ms\nLanguage                         : Danish\n\n\n\n\nIMDB link :                           &lt;a href=&quot; http://www.imdb.com/title/tt1340107/&quot; rel=&quot;nofollow&quot; target=&quot;_NEW&quot;&gt; http://www.imdb.com/title/tt1340107/&lt;/a&gt;\n\n\n\n\nSubtitles included               : English, Romanian, Danish, Norvegian, Swedish, \nSlovenian,                                                 Arabic, Farsi/Persian, Turkish, Indonesian, Portuguese-Brasilian\n\n\n\n\nPlease seed at least 1,5:1 !! This way this torrent has a chance to survive.\n\n\nThanks.  ENJOY !!!\n","torrent":{"xt":"urn:btih:d27b2e4695ffcd87563f235ba392cdfbd47995e7","amp;dn":"In+a+Better+World+%5BH%C3%83%C2%A6vnen%5D+%5B2010%5D+720p+BRRip+XviD+AC3+-+CODY","amp;tr":["udp%3A%2F%2Ftracker.openbittorrent.com%3A80","udp%3A%2F%2Fopen.demonii.com%3A1337","udp%3A%2F%2Ftracker.coppersurfer.tk%3A6969","udp%3A%2F%2Fexodus.desync.com%3A6969"],"infoHash":"d27b2e4695ffcd87563f235ba392cdfbd47995e7","infoHashBuffer":{"type":"Buffer","data":[210,123,46,70,149,255,205,135,86,63,35,91,163,146,205,251,212,121,149,231]},"announce":[],"urlList":[]}}